<?xml version="1.0" standalone="no"?>
<!DOCTYPE svg PUBLIC "-//W3C//DTD SVG 20010904//EN"
 "http://www.w3.org/TR/2001/REC-SVG-20010904/DTD/svg10.dtd">
<svg version="1.0" xmlns="http://www.w3.org/2000/svg"
 width="200.000000pt" height="200.000000pt" viewBox="0 0 200.000000 200.000000"
 preserveAspectRatio="xMidYMid meet">

<g transform="translate(0.000000,200.000000) scale(0.100000,-0.100000)"
fill="#000000" stroke="none">
<path d="M1055 1742 c-170 -59 -267 -217 -236 -386 14 -78 36 -120 89 -171 56
-55 122 -90 294 -154 166 -63 215 -89 263 -143 60 -66 79 -119 79 -220 0 -49
1 -88 3 -88 1 0 17 28 34 61 86 171 67 336 -50 442 -48 43 -149 96 -264 138
-127 46 -217 99 -252 148 -24 34 -30 54 -33 111 -6 95 23 146 103 186 49 24
64 26 120 21 141 -13 223 -98 286 -295 23 -71 24 -73 54 -70 l30 3 0 215 0
215 -27 3 c-22 3 -32 -3 -48 -30 -11 -18 -21 -37 -23 -42 -2 -5 -23 2 -47 14
-122 62 -267 78 -375 42z"/>
</g>
</svg>
